<svg xmlns="http://www.w3.org/2000/svg" xmlns:xlink="http://www.w3.org/1999/xlink" width="80" zoomAndPan="magnify" viewBox="0 0 60 60" height="80" preserveAspectRatio="xMidYMid meet" version="1.0"><defs><clipPath id="3e6b603fb8"><path d="M 0 23.640625 L 60 23.640625 L 60 48 L 0 48 Z M 0 23.640625 " clip-rule="nonzero"/></clipPath><clipPath id="1f111c65a8"><path d="M 0 31 L 60 31 L 60 55.140625 L 0 55.140625 Z M 0 31 " clip-rule="nonzero"/></clipPath></defs><g clip-path="url(#3e6b603fb8)"><path fill="#78c7c1" d="M 51.996094 32.863281 C 52.019531 32.808594 52.050781 32.753906 52.078125 32.699219 C 52.253906 32.414062 52.371094 32.234375 52.425781 32.152344 L 52.613281 31.882812 C 56.265625 26.089844 58.261719 23.898438 58.734375 24.125 C 59.308594 23.65625 59.28125 24.113281 58.503906 25.675781 C 57.855469 27.335938 56.289062 30.191406 53.863281 33.644531 L 53.546875 34.15625 C 53.371094 34.441406 53.085938 34.878906 52.71875 35.386719 C 51.050781 37.703125 47.605469 41.703125 44.25 41.265625 C 41.941406 40.957031 39.84375 39.109375 37.789062 37.296875 C 34.601562 34.484375 31.535156 31.78125 28.515625 36.886719 C 23.054688 46.097656 15.5625 42.867188 9.738281 40.363281 C 7.632812 39.453125 5.765625 38.648438 4.429688 38.648438 C 0.601562 38.648438 0.652344 45.867188 0 47.992188 C 0.117188 46.0625 0.117188 36.140625 4.429688 36.140625 L 4.429688 36.136719 C 6.027344 36.136719 8.007812 36.996094 10.246094 37.953125 C 15.582031 40.257812 22.464844 43.21875 27.171875 35.265625 C 31.171875 28.511719 34.867188 31.769531 38.714844 35.167969 C 40.59375 36.824219 42.515625 38.523438 44.410156 38.769531 C 47.070312 39.117188 50.035156 35.617188 51.492188 33.589844 C 51.691406 33.3125 51.863281 33.066406 51.996094 32.863281 Z M 51.996094 32.863281 " fill-opacity="1" fill-rule="nonzero"/></g><g clip-path="url(#1f111c65a8)"><path fill="#e499ad" d="M 52.691406 40 C 52.714844 39.941406 52.742188 39.886719 52.773438 39.835938 C 52.945312 39.546875 53.0625 39.371094 53.117188 39.289062 L 53.3125 39.019531 C 56.957031 33.21875 58.949219 31.03125 59.425781 31.253906 C 60 30.789062 59.976562 31.25 59.199219 32.808594 C 58.546875 34.472656 56.976562 37.324219 54.558594 40.777344 L 54.246094 41.285156 C 54.0625 41.578125 53.773438 42.015625 53.410156 42.523438 C 51.742188 44.839844 48.300781 48.832031 44.949219 48.394531 C 42.636719 48.09375 40.539062 46.246094 38.484375 44.429688 C 35.292969 41.613281 32.230469 38.910156 29.203125 44.015625 C 23.753906 53.234375 16.25 50.003906 10.429688 47.492188 C 8.328125 46.589844 6.464844 45.785156 5.125 45.785156 L 5.125 45.78125 C 1.296875 45.78125 1.34375 53 0.691406 55.121094 C 0.8125 53.199219 0.804688 43.277344 5.125 43.277344 L 5.125 43.273438 C 6.722656 43.273438 8.707031 44.125 10.9375 45.089844 C 16.277344 47.390625 23.15625 50.347656 27.863281 42.402344 C 31.863281 35.644531 35.558594 38.90625 39.40625 42.300781 C 41.285156 43.960938 43.214844 45.652344 45.109375 45.90625 C 47.757812 46.25 50.726562 42.753906 52.183594 40.722656 C 52.382812 40.449219 52.554688 40.203125 52.691406 40 Z M 52.691406 40 " fill-opacity="1" fill-rule="nonzero"/></g><path fill="#ffffff" d="M 32.757812 17.320312 C 32.757812 17.886719 32.734375 18.449219 32.679688 19.015625 C 32.628906 19.578125 32.550781 20.140625 32.445312 20.695312 C 32.339844 21.253906 32.210938 21.800781 32.054688 22.34375 C 31.898438 22.886719 31.71875 23.421875 31.511719 23.945312 C 31.308594 24.46875 31.078125 24.980469 30.824219 25.480469 C 30.574219 25.980469 30.296875 26.464844 30 26.9375 C 29.703125 27.410156 29.382812 27.863281 29.042969 28.300781 C 28.703125 28.738281 28.339844 29.160156 27.960938 29.5625 C 27.582031 29.960938 27.1875 30.34375 26.769531 30.703125 C 26.355469 31.0625 25.925781 31.398438 25.480469 31.714844 C 25.035156 32.027344 24.574219 32.320312 24.101562 32.585938 C 23.628906 32.855469 23.144531 33.097656 22.648438 33.3125 C 22.152344 33.53125 21.648438 33.722656 21.136719 33.886719 C 20.621094 34.050781 20.101562 34.1875 19.574219 34.300781 C 19.050781 34.410156 18.519531 34.492188 17.984375 34.546875 C 17.453125 34.605469 16.917969 34.632812 16.378906 34.632812 C 15.84375 34.632812 15.308594 34.605469 14.773438 34.546875 C 14.242188 34.492188 13.710938 34.410156 13.183594 34.300781 C 12.660156 34.1875 12.140625 34.050781 11.625 33.886719 C 11.113281 33.722656 10.609375 33.53125 10.113281 33.3125 C 9.617188 33.097656 9.132812 32.855469 8.660156 32.585938 C 8.1875 32.320312 7.726562 32.027344 7.28125 31.714844 C 6.835938 31.398438 6.402344 31.0625 5.988281 30.703125 C 5.574219 30.34375 5.175781 29.960938 4.796875 29.5625 C 4.417969 29.160156 4.058594 28.738281 3.71875 28.300781 C 3.378906 27.863281 3.058594 27.410156 2.761719 26.9375 C 2.464844 26.464844 2.1875 25.980469 1.933594 25.480469 C 1.683594 24.980469 1.453125 24.46875 1.246094 23.945312 C 1.042969 23.421875 0.863281 22.886719 0.707031 22.34375 C 0.550781 21.800781 0.421875 21.253906 0.316406 20.695312 C 0.210938 20.140625 0.132812 19.578125 0.078125 19.015625 C 0.0273438 18.449219 0 17.886719 0 17.320312 C 0 16.75 0.0273438 16.1875 0.078125 15.621094 C 0.132812 15.058594 0.210938 14.496094 0.316406 13.941406 C 0.421875 13.382812 0.550781 12.835938 0.707031 12.292969 C 0.863281 11.75 1.042969 11.214844 1.246094 10.691406 C 1.453125 10.167969 1.683594 9.65625 1.933594 9.15625 C 2.1875 8.65625 2.464844 8.171875 2.761719 7.699219 C 3.058594 7.226562 3.378906 6.773438 3.71875 6.335938 C 4.058594 5.898438 4.417969 5.476562 4.796875 5.074219 C 5.175781 4.675781 5.574219 4.292969 5.988281 3.933594 C 6.402344 3.574219 6.835938 3.238281 7.28125 2.921875 C 7.726562 2.609375 8.1875 2.316406 8.660156 2.050781 C 9.132812 1.78125 9.617188 1.539062 10.113281 1.324219 C 10.609375 1.105469 11.113281 0.914062 11.625 0.75 C 12.140625 0.585938 12.660156 0.449219 13.183594 0.335938 C 13.710938 0.226562 14.242188 0.144531 14.773438 0.0898438 C 15.308594 0.03125 15.84375 0.00390625 16.378906 0.00390625 C 16.917969 0.00390625 17.453125 0.03125 17.984375 0.0898438 C 18.519531 0.144531 19.050781 0.226562 19.574219 0.335938 C 20.101562 0.449219 20.621094 0.585938 21.136719 0.75 C 21.648438 0.914062 22.152344 1.105469 22.648438 1.324219 C 23.144531 1.539062 23.628906 1.78125 24.101562 2.050781 C 24.574219 2.316406 25.035156 2.609375 25.480469 2.921875 C 25.925781 3.238281 26.355469 3.574219 26.769531 3.933594 C 27.1875 4.292969 27.582031 4.675781 27.960938 5.074219 C 28.339844 5.476562 28.703125 5.898438 29.042969 6.335938 C 29.382812 6.773438 29.703125 7.226562 30 7.699219 C 30.296875 8.171875 30.574219 8.65625 30.824219 9.15625 C 31.078125 9.65625 31.308594 10.167969 31.511719 10.691406 C 31.71875 11.214844 31.898438 11.75 32.054688 12.292969 C 32.210938 12.835938 32.339844 13.382812 32.445312 13.941406 C 32.550781 14.496094 32.628906 15.058594 32.679688 15.621094 C 32.734375 16.1875 32.757812 16.75 32.757812 17.320312 Z M 32.757812 17.320312 " fill-opacity="1" fill-rule="nonzero"/><path fill="#f9d949" d="M 29.867188 17.320312 C 29.867188 18.265625 29.78125 19.199219 29.609375 20.128906 C 29.4375 21.054688 29.179688 21.957031 28.839844 22.832031 C 28.503906 23.707031 28.085938 24.535156 27.59375 25.320312 C 27.101562 26.109375 26.542969 26.835938 25.917969 27.503906 C 25.292969 28.171875 24.609375 28.769531 23.875 29.296875 C 23.136719 29.820312 22.359375 30.265625 21.542969 30.628906 C 20.722656 30.988281 19.878906 31.261719 19.011719 31.449219 C 18.144531 31.632812 17.265625 31.722656 16.378906 31.722656 C 15.496094 31.722656 14.617188 31.632812 13.75 31.449219 C 12.878906 31.261719 12.035156 30.988281 11.21875 30.628906 C 10.398438 30.265625 9.621094 29.820312 8.886719 29.296875 C 8.148438 28.769531 7.46875 28.171875 6.84375 27.503906 C 6.214844 26.835938 5.65625 26.109375 5.164062 25.320312 C 4.671875 24.535156 4.257812 23.707031 3.917969 22.832031 C 3.578125 21.957031 3.324219 21.054688 3.152344 20.128906 C 2.980469 19.199219 2.890625 18.265625 2.890625 17.320312 C 2.890625 16.371094 2.980469 15.4375 3.152344 14.507812 C 3.324219 13.582031 3.578125 12.679688 3.917969 11.804688 C 4.257812 10.929688 4.671875 10.101562 5.164062 9.316406 C 5.65625 8.527344 6.214844 7.800781 6.84375 7.132812 C 7.46875 6.464844 8.148438 5.867188 8.886719 5.339844 C 9.621094 4.816406 10.398438 4.371094 11.21875 4.007812 C 12.035156 3.648438 12.878906 3.375 13.75 3.1875 C 14.617188 3.003906 15.496094 2.914062 16.378906 2.914062 C 17.265625 2.914062 18.144531 3.003906 19.011719 3.1875 C 19.878906 3.375 20.722656 3.648438 21.542969 4.007812 C 22.359375 4.371094 23.136719 4.816406 23.875 5.339844 C 24.609375 5.867188 25.292969 6.464844 25.917969 7.132812 C 26.542969 7.800781 27.101562 8.527344 27.59375 9.316406 C 28.085938 10.101562 28.503906 10.929688 28.839844 11.804688 C 29.179688 12.679688 29.4375 13.582031 29.609375 14.507812 C 29.78125 15.4375 29.867188 16.371094 29.867188 17.320312 Z M 29.867188 17.320312 " fill-opacity="1" fill-rule="nonzero"/><path fill="#ffffff" d="M 38.476562 42.578125 C 38.476562 43.402344 38.398438 44.222656 38.238281 45.03125 C 38.078125 45.839844 37.839844 46.628906 37.523438 47.390625 C 37.210938 48.152344 36.824219 48.878906 36.367188 49.566406 C 35.914062 50.25 35.394531 50.886719 34.8125 51.472656 C 34.234375 52.054688 33.601562 52.578125 32.917969 53.035156 C 32.234375 53.492188 31.515625 53.882812 30.753906 54.195312 C 29.996094 54.511719 29.214844 54.75 28.410156 54.914062 C 27.601562 55.074219 26.789062 55.15625 25.96875 55.15625 C 25.148438 55.15625 24.332031 55.074219 23.527344 54.914062 C 22.722656 54.75 21.941406 54.511719 21.183594 54.195312 C 20.421875 53.882812 19.703125 53.492188 19.019531 53.035156 C 18.335938 52.578125 17.703125 52.054688 17.125 51.472656 C 16.542969 50.886719 16.023438 50.25 15.566406 49.566406 C 15.113281 48.878906 14.726562 48.152344 14.414062 47.390625 C 14.097656 46.628906 13.859375 45.839844 13.699219 45.03125 C 13.539062 44.222656 13.460938 43.402344 13.460938 42.578125 C 13.460938 41.753906 13.539062 40.933594 13.699219 40.125 C 13.859375 39.316406 14.097656 38.527344 14.414062 37.765625 C 14.726562 37.003906 15.113281 36.277344 15.566406 35.589844 C 16.023438 34.90625 16.542969 34.269531 17.125 33.683594 C 17.703125 33.101562 18.335938 32.578125 19.019531 32.121094 C 19.703125 31.664062 20.421875 31.273438 21.183594 30.960938 C 21.941406 30.644531 22.722656 30.40625 23.527344 30.242188 C 24.332031 30.082031 25.148438 30 25.96875 30 C 26.789062 30 27.601562 30.082031 28.410156 30.242188 C 29.214844 30.40625 29.996094 30.644531 30.753906 30.960938 C 31.515625 31.273438 32.234375 31.664062 32.917969 32.121094 C 33.601562 32.578125 34.234375 33.101562 34.8125 33.683594 C 35.394531 34.269531 35.914062 34.90625 36.367188 35.589844 C 36.824219 36.277344 37.210938 37.003906 37.523438 37.765625 C 37.839844 38.527344 38.078125 39.316406 38.238281 40.125 C 38.398438 40.933594 38.476562 41.753906 38.476562 42.578125 Z M 38.476562 42.578125 " fill-opacity="1" fill-rule="nonzero"/><path fill="#f45050" d="M 32.769531 35.742188 C 33.214844 36.191406 33.613281 36.679688 33.964844 37.207031 C 34.316406 37.734375 34.609375 38.289062 34.851562 38.878906 C 35.09375 39.464844 35.277344 40.070312 35.398438 40.691406 C 35.523438 41.3125 35.585938 41.941406 35.585938 42.578125 C 35.585938 43.210938 35.523438 43.839844 35.398438 44.464844 C 35.277344 45.085938 35.09375 45.691406 34.851562 46.277344 C 34.609375 46.863281 34.316406 47.421875 33.964844 47.949219 C 33.613281 48.476562 33.214844 48.964844 32.769531 49.414062 C 32.320312 49.863281 31.835938 50.265625 31.3125 50.617188 C 30.785156 50.96875 30.230469 51.269531 29.648438 51.511719 C 29.066406 51.753906 28.464844 51.9375 27.84375 52.0625 C 27.226562 52.183594 26.597656 52.246094 25.96875 52.246094 C 25.335938 52.246094 24.710938 52.183594 24.09375 52.0625 C 23.472656 51.9375 22.871094 51.753906 22.289062 51.511719 C 21.703125 51.269531 21.148438 50.96875 20.625 50.617188 C 20.101562 50.265625 19.613281 49.863281 19.167969 49.414062 C 18.722656 48.964844 18.324219 48.476562 17.972656 47.949219 C 17.621094 47.421875 17.324219 46.863281 17.082031 46.277344 C 16.839844 45.691406 16.660156 45.085938 16.535156 44.464844 C 16.414062 43.839844 16.351562 43.214844 16.351562 42.578125 C 16.351562 41.941406 16.414062 41.316406 16.535156 40.691406 C 16.660156 40.070312 16.839844 39.464844 17.082031 38.878906 C 17.324219 38.292969 17.621094 37.734375 17.972656 37.207031 C 18.324219 36.679688 18.722656 36.191406 19.167969 35.742188 C 19.613281 35.292969 20.101562 34.890625 20.625 34.539062 C 21.148438 34.1875 21.703125 33.886719 22.289062 33.644531 C 22.871094 33.402344 23.472656 33.21875 24.089844 33.09375 C 24.710938 32.972656 25.335938 32.910156 25.96875 32.910156 C 26.597656 32.910156 27.226562 32.972656 27.84375 33.09375 C 28.464844 33.21875 29.066406 33.402344 29.648438 33.644531 C 30.230469 33.886719 30.785156 34.183594 31.3125 34.539062 C 31.835938 34.890625 32.320312 35.292969 32.769531 35.742188 Z M 32.769531 35.742188 " fill-opacity="1" fill-rule="nonzero"/><path fill="#ffffff" d="M 60 26.207031 C 60 27.144531 59.910156 28.070312 59.726562 28.992188 C 59.542969 29.910156 59.273438 30.800781 58.917969 31.667969 C 58.5625 32.535156 58.125 33.355469 57.605469 34.136719 C 57.089844 34.917969 56.5 35.636719 55.839844 36.300781 C 55.179688 36.960938 54.464844 37.554688 53.6875 38.074219 C 52.914062 38.597656 52.09375 39.035156 51.234375 39.394531 C 50.371094 39.753906 49.484375 40.023438 48.570312 40.207031 C 47.65625 40.390625 46.734375 40.480469 45.800781 40.480469 C 44.867188 40.480469 43.945312 40.390625 43.03125 40.207031 C 42.117188 40.023438 41.230469 39.753906 40.367188 39.394531 C 39.507812 39.035156 38.6875 38.597656 37.914062 38.074219 C 37.136719 37.554688 36.421875 36.960938 35.761719 36.300781 C 35.101562 35.636719 34.511719 34.917969 33.996094 34.136719 C 33.476562 33.355469 33.039062 32.535156 32.683594 31.667969 C 32.328125 30.800781 32.058594 29.910156 31.875 28.992188 C 31.691406 28.070312 31.601562 27.144531 31.601562 26.207031 C 31.601562 25.269531 31.691406 24.339844 31.875 23.421875 C 32.058594 22.5 32.328125 21.609375 32.683594 20.742188 C 33.039062 19.875 33.476562 19.054688 33.996094 18.273438 C 34.511719 17.496094 35.101562 16.773438 35.761719 16.109375 C 36.421875 15.449219 37.136719 14.855469 37.914062 14.335938 C 38.6875 13.816406 39.507812 13.375 40.367188 13.015625 C 41.230469 12.65625 42.117188 12.386719 43.03125 12.203125 C 43.945312 12.019531 44.867188 11.929688 45.800781 11.929688 C 46.734375 11.929688 47.65625 12.019531 48.570312 12.203125 C 49.484375 12.386719 50.371094 12.65625 51.234375 13.015625 C 52.09375 13.375 52.914062 13.816406 53.6875 14.335938 C 54.464844 14.855469 55.179688 15.449219 55.839844 16.109375 C 56.5 16.773438 57.089844 17.496094 57.605469 18.273438 C 58.125 19.054688 58.5625 19.875 58.917969 20.742188 C 59.273438 21.609375 59.542969 22.5 59.726562 23.421875 C 59.910156 24.339844 60 25.269531 60 26.207031 Z M 60 26.207031 " fill-opacity="1" fill-rule="nonzero"/><path fill="#6fedd6" d="M 57.109375 26.207031 C 57.109375 26.953125 57.035156 27.691406 56.890625 28.421875 C 56.746094 29.15625 56.53125 29.867188 56.246094 30.554688 C 55.964844 31.246094 55.613281 31.902344 55.203125 32.523438 C 54.789062 33.140625 54.320312 33.714844 53.796875 34.246094 C 53.269531 34.773438 52.699219 35.242188 52.082031 35.65625 C 51.464844 36.074219 50.8125 36.421875 50.128906 36.707031 C 49.441406 36.996094 48.734375 37.210938 48.007812 37.355469 C 47.277344 37.5 46.542969 37.574219 45.800781 37.574219 C 45.058594 37.574219 44.324219 37.5 43.59375 37.355469 C 42.867188 37.210938 42.160156 36.996094 41.472656 36.707031 C 40.789062 36.421875 40.136719 36.074219 39.519531 35.65625 C 38.902344 35.242188 38.332031 34.773438 37.804688 34.246094 C 37.28125 33.714844 36.8125 33.140625 36.398438 32.523438 C 35.988281 31.902344 35.636719 31.246094 35.355469 30.554688 C 35.070312 29.867188 34.855469 29.15625 34.710938 28.421875 C 34.566406 27.691406 34.492188 26.953125 34.492188 26.207031 C 34.492188 25.457031 34.566406 24.71875 34.710938 23.988281 C 34.855469 23.253906 35.070312 22.542969 35.355469 21.855469 C 35.636719 21.164062 35.988281 20.511719 36.398438 19.890625 C 36.8125 19.269531 37.28125 18.695312 37.804688 18.167969 C 38.332031 17.640625 38.902344 17.167969 39.519531 16.753906 C 40.136719 16.339844 40.789062 15.988281 41.472656 15.703125 C 42.160156 15.417969 42.867188 15.199219 43.59375 15.054688 C 44.324219 14.910156 45.058594 14.835938 45.800781 14.835938 C 46.542969 14.835938 47.277344 14.910156 48.007812 15.054688 C 48.734375 15.199219 49.441406 15.417969 50.128906 15.703125 C 50.8125 15.988281 51.464844 16.339844 52.082031 16.753906 C 52.699219 17.167969 53.269531 17.640625 53.796875 18.167969 C 54.320312 18.695312 54.789062 19.269531 55.203125 19.890625 C 55.613281 20.511719 55.964844 21.164062 56.246094 21.855469 C 56.53125 22.542969 56.746094 23.253906 56.890625 23.988281 C 57.035156 24.71875 57.109375 25.457031 57.109375 26.207031 Z M 57.109375 26.207031 " fill-opacity="1" fill-rule="nonzero"/><path fill="#000000" d="M 13.691406 12.015625 L 14.296875 16.449219 C 14.320312 16.613281 14.207031 16.765625 14.042969 16.789062 C 13.878906 16.8125 13.726562 16.695312 13.703125 16.53125 L 13.097656 12.097656 C 13.078125 11.933594 13.191406 11.78125 13.355469 11.757812 C 13.519531 11.734375 13.667969 11.851562 13.691406 12.015625 Z M 13.691406 12.015625 " fill-opacity="1" fill-rule="nonzero"/><path fill="#000000" d="M 19.210938 12.65625 L 19.578125 16.628906 C 19.59375 16.792969 19.472656 16.941406 19.308594 16.957031 C 19.144531 16.972656 19 16.851562 18.984375 16.683594 L 18.617188 12.714844 C 18.601562 12.546875 18.722656 12.402344 18.886719 12.386719 C 19.050781 12.371094 19.195312 12.492188 19.210938 12.65625 Z M 19.210938 12.65625 " fill-opacity="1" fill-rule="nonzero"/><path fill="#000000" d="M 9.878906 19.984375 C 12.015625 21.78125 14.082031 23.515625 15.855469 24.128906 C 16.09375 24.210938 16.324219 24.273438 16.550781 24.316406 C 17.964844 24.582031 19.222656 24.121094 20.460938 23.230469 C 21.90625 22.191406 23.28125 20.605469 24.6875 18.980469 C 24.796875 18.855469 24.988281 18.84375 25.109375 18.949219 C 25.234375 19.058594 25.25 19.25 25.140625 19.375 C 23.746094 20.984375 22.320312 22.632812 20.808594 23.71875 C 19.492188 24.667969 18.074219 25.214844 16.441406 24.90625 C 16.183594 24.859375 15.925781 24.789062 15.660156 24.699219 C 13.757812 24.039062 11.59375 22.210938 9.496094 20.445312 C 9.367188 20.339844 9.351562 20.148438 9.457031 20.023438 C 9.5625 19.894531 9.753906 19.878906 9.878906 19.984375 Z M 9.878906 19.984375 " fill-opacity="1" fill-rule="nonzero"/><path fill="#000000" d="M 24.613281 18.398438 L 25.683594 19.40625 C 25.804688 19.519531 25.8125 19.710938 25.699219 19.832031 C 25.585938 19.953125 25.394531 19.960938 25.273438 19.847656 L 24.203125 18.835938 C 24.082031 18.722656 24.078125 18.53125 24.191406 18.410156 C 24.304688 18.289062 24.492188 18.285156 24.613281 18.398438 Z M 24.613281 18.398438 " fill-opacity="1" fill-rule="nonzero"/><path fill="#000000" d="M 8.984375 20.230469 L 9.882812 19.410156 C 10.003906 19.300781 10.195312 19.308594 10.304688 19.433594 C 10.417969 19.554688 10.40625 19.746094 10.285156 19.859375 L 9.386719 20.675781 C 9.265625 20.789062 9.074219 20.777344 8.964844 20.65625 C 8.855469 20.53125 8.863281 20.34375 8.984375 20.230469 Z M 8.984375 20.230469 " fill-opacity="1" fill-rule="nonzero"/><path fill="#000000" d="M 26.410156 38.363281 L 26.574219 40.417969 C 26.589844 40.582031 26.464844 40.726562 26.300781 40.742188 C 26.136719 40.753906 25.992188 40.628906 25.976562 40.464844 L 25.8125 38.410156 C 25.796875 38.246094 25.921875 38.097656 26.085938 38.085938 C 26.25 38.074219 26.394531 38.195312 26.410156 38.363281 Z M 26.410156 38.363281 " fill-opacity="1" fill-rule="nonzero"/><path fill="#000000" d="M 28.015625 39.054688 L 28.15625 40.535156 C 28.171875 40.703125 28.050781 40.847656 27.886719 40.863281 C 27.722656 40.878906 27.574219 40.757812 27.558594 40.59375 L 27.417969 39.113281 C 27.402344 38.945312 27.523438 38.800781 27.6875 38.785156 C 27.855469 38.769531 28 38.890625 28.015625 39.054688 Z M 28.015625 39.054688 " fill-opacity="1" fill-rule="nonzero"/><path fill="#000000" d="M 22.898438 42.507812 C 24.265625 44.082031 25.492188 45.457031 26.660156 45.515625 C 26.695312 45.515625 26.730469 45.519531 26.765625 45.515625 C 27.960938 45.492188 29.226562 44.027344 30.644531 42.347656 C 30.75 42.21875 30.941406 42.203125 31.066406 42.3125 C 31.191406 42.417969 31.207031 42.609375 31.101562 42.734375 C 29.78125 44.300781 28.3125 46.085938 26.777344 46.117188 C 26.726562 46.121094 26.679688 46.117188 26.628906 46.117188 C 25.144531 46.042969 23.726562 44.375 22.449219 42.902344 C 22.339844 42.777344 22.351562 42.589844 22.476562 42.480469 C 22.601562 42.371094 22.789062 42.382812 22.898438 42.507812 Z M 22.898438 42.507812 " fill-opacity="1" fill-rule="nonzero"/><path fill="#000000" d="M 21.960938 42.707031 L 22.921875 41.964844 C 23.050781 41.863281 23.238281 41.890625 23.339844 42.019531 C 23.441406 42.152344 23.417969 42.34375 23.285156 42.441406 L 22.324219 43.183594 C 22.195312 43.285156 22.007812 43.261719 21.90625 43.128906 C 21.804688 42.996094 21.828125 42.808594 21.960938 42.707031 Z M 21.960938 42.707031 " fill-opacity="1" fill-rule="nonzero"/><path fill="#000000" d="M 30.84375 41.917969 L 31.546875 42.59375 C 31.667969 42.707031 31.671875 42.898438 31.558594 43.019531 C 31.445312 43.140625 31.253906 43.144531 31.132812 43.027344 L 30.433594 42.355469 C 30.3125 42.242188 30.308594 42.050781 30.421875 41.929688 C 30.535156 41.808594 30.726562 41.804688 30.84375 41.917969 Z M 30.84375 41.917969 " fill-opacity="1" fill-rule="nonzero"/><path fill="#000000" d="M 44.40625 21.632812 L 44.507812 24.996094 C 44.511719 25.160156 44.382812 25.300781 44.21875 25.304688 C 44.050781 25.308594 43.914062 25.179688 43.910156 25.011719 L 43.808594 21.648438 C 43.804688 21.484375 43.933594 21.34375 44.097656 21.339844 C 44.261719 21.335938 44.402344 21.464844 44.40625 21.632812 Z M 44.40625 21.632812 " fill-opacity="1" fill-rule="nonzero"/><path fill="#000000" d="M 47.332031 22.800781 L 47.359375 25.542969 C 47.359375 25.707031 47.226562 25.84375 47.0625 25.847656 C 46.894531 25.847656 46.761719 25.714844 46.757812 25.546875 L 46.734375 22.808594 C 46.734375 22.640625 46.867188 22.507812 47.03125 22.503906 C 47.195312 22.503906 47.332031 22.636719 47.332031 22.800781 Z M 47.332031 22.800781 " fill-opacity="1" fill-rule="nonzero"/><path fill="#000000" d="M 40.9375 25.804688 C 42.917969 28.53125 44.789062 31.082031 46.542969 31.570312 C 46.542969 31.570312 46.546875 31.574219 46.550781 31.574219 C 48.230469 32.039062 49.902344 30.585938 51.765625 28.914062 C 51.890625 28.804688 52.078125 28.816406 52.1875 28.941406 C 52.296875 29.0625 52.289062 29.253906 52.164062 29.363281 C 50.410156 30.9375 48.457031 32.726562 46.390625 32.152344 C 46.382812 32.152344 46.386719 32.152344 46.382812 32.152344 C 44.375 31.589844 42.363281 28.789062 40.453125 26.160156 C 40.355469 26.027344 40.382812 25.835938 40.519531 25.738281 C 40.652344 25.640625 40.839844 25.671875 40.9375 25.804688 Z M 40.9375 25.804688 " fill-opacity="1" fill-rule="nonzero"/><path fill="#000000" d="M 52 28.558594 L 52.644531 29.6875 C 52.726562 29.832031 52.675781 30.015625 52.53125 30.097656 C 52.390625 30.179688 52.207031 30.128906 52.125 29.984375 L 51.480469 28.859375 C 51.398438 28.714844 51.445312 28.53125 51.589844 28.445312 C 51.734375 28.363281 51.917969 28.414062 52 28.558594 Z M 52 28.558594 " fill-opacity="1" fill-rule="nonzero"/><path fill="#000000" d="M 40.023438 25.984375 L 41.15625 25.3125 C 41.296875 25.226562 41.480469 25.273438 41.566406 25.417969 C 41.648438 25.558594 41.601562 25.746094 41.460938 25.828125 L 40.328125 26.5 C 40.1875 26.585938 40.003906 26.539062 39.917969 26.394531 C 39.835938 26.253906 39.882812 26.066406 40.023438 25.984375 Z M 40.023438 25.984375 " fill-opacity="1" fill-rule="nonzero"/></svg>